<svg width="93" height="40" fill="none" xmlns="http://www.w3.org/2000/svg"><g clip-path="url(#a)"><path d="M38.45 29.78V14.85h-.11l-5.97 14.93h-2.33l-5.97-14.93h-.1v14.93H21.2V9.55h3.54l6.41 16.14h.11l6.41-16.14h3.65v20.23h-2.87Zm18.46 0h-2.88v-2.54h-.1C53.14 29 51.6 30 49.38 30c-3.2 0-5.08-2.1-5.08-5.53v-9.5h2.98v8.95c0 2.21 1.1 3.43 3.1 3.43 2.2 0 3.42-1.55 3.42-3.87v-8.52h2.99l.1 14.82Zm8.18-15.04c3.43 0 5.53 1.88 5.64 4.65h-2.77c-.22-1.44-1.21-2.32-2.87-2.32-1.66 0-2.76.77-2.76 1.99 0 .88.66 1.54 2.2 1.87l2.33.56c2.98.66 4.09 1.88 4.09 3.98 0 2.65-2.43 4.53-5.86 4.53-3.65 0-5.86-1.77-6.08-4.64h2.98c.23 1.54 1.33 2.32 3.1 2.32s2.87-.78 2.87-2c0-.99-.55-1.54-2.1-1.87l-2.32-.55c-2.76-.67-4.09-2-4.09-4.2 0-2.55 2.21-4.32 5.64-4.32Zm8.07-3.64c0-1 .77-1.77 1.77-1.77s1.77.77 1.77 1.77-.78 1.76-1.77 1.76c-1 0-1.77-.77-1.77-1.76Zm.22 3.86h2.99v14.82h-2.99V14.96Zm15.59 5.09c-.33-1.55-1.44-2.87-3.43-2.87-2.32 0-3.87 1.99-3.87 5.08 0 3.2 1.55 5.09 3.87 5.09 1.88 0 2.99-1 3.43-2.77h2.87c-.33 3.1-2.76 5.3-6.3 5.3-4.2 0-6.85-2.86-6.85-7.62 0-4.64 2.65-7.63 6.85-7.63 3.76 0 5.97 2.44 6.3 5.31l-2.87.11Zm-76.95-8.51c-.77.88-1.99 1.66-3.2 1.55a4.45 4.45 0 0 1 1.1-3.43c.78-1 2.1-1.66 3.21-1.66a5.2 5.2 0 0 1-1.1 3.54Zm1.11 1.77c.66 0 2.65.22 3.98 2.2-.11.12-2.32 1.44-2.32 4.2a4.78 4.78 0 0 0 2.87 4.43c0 .11-.44 1.55-1.43 3.1-.89 1.32-1.88 2.65-3.32 2.65S11.03 29 9.37 29c-1.66 0-2.21.89-3.54.89-1.43 0-2.54-1.44-3.42-2.76-1.88-2.77-3.32-7.74-1.33-11.06a5.18 5.18 0 0 1 4.42-2.76c1.44 0 2.77 1 3.54 1s2.32-1.11 4.09-1Z" fill="#7E8999"/></g><defs><clipPath id="a"><path fill="#fff" transform="translate(.12)" d="M0 0h92v40H0z"/></clipPath></defs></svg>