<svg width="32" height="32" viewBox="0 0 32 32" fill="none" xmlns="http://www.w3.org/2000/svg">
<path fill-rule="evenodd" clip-rule="evenodd" d="M28.6667 10.7467C29.1633 10.247 29.4421 9.57116 29.4421 8.86667C29.4421 8.16217 29.1633 7.4863 28.6667 6.98667L25.2133 3.53333C24.7137 3.03666 24.0378 2.75789 23.3333 2.75789C22.6288 2.75789 21.953 3.03666 21.4533 3.53333L4.72 20.2533L3.82667 28.3867L11.9467 27.4667L28.6667 10.7467ZM22.7867 12.8667L10.72 24.92L6.85333 25.36L7.28 21.48L19.3333 9.41333L22.7867 12.8667ZM24.6667 10.9867L21.2133 7.53333L23.3333 5.41333L26.7867 8.86667L24.6667 10.9867Z" fill="black"/>
</svg>
