<svg width="32" height="32" viewBox="0 0 32 32" fill="none" xmlns="http://www.w3.org/2000/svg">
<path d="M20.7867 8.25333C19.7702 7.49645 18.5851 6.99771 17.3333 6.8V5.33333H14.6667V6.70667C13.6533 6.82667 12.7467 7.17333 12.0533 7.74667C11.6182 8.09836 11.2676 8.54338 11.0276 9.0488C10.7876 9.55423 10.6642 10.1071 10.6667 10.6667C10.6667 12.4 11.8667 13.4 12.92 13.8933C13.96 14.4 15.1467 14.5867 15.8533 14.6533C16.4267 14.72 17.2533 14.92 17.8933 15.24C18.5867 15.6 18.6667 15.88 18.6667 16C18.6667 16.4 18.24 17.3333 16.5333 17.3333C15.1969 17.4199 13.872 17.038 12.7867 16.2533L11.2 18.4C12.24 19.1467 13.32 19.6267 14.6533 19.84V21.3333H17.32V19.9467C19.6667 19.6533 21.32 18.04 21.32 16C21.32 14.3333 20.0667 13.36 19.0933 12.8667C18.163 12.4142 17.1617 12.1255 16.1333 12.0133C15.4168 11.9515 14.7147 11.776 14.0533 11.4933C13.4667 11.2 13.3333 10.92 13.3333 10.6667C13.3333 10.3333 13.4667 10.04 13.7333 9.81333C14.04 9.57333 14.5733 9.33333 15.4667 9.33333C16.8034 9.24455 18.129 9.62666 19.2133 10.4133L20.8 8.26667L20.7867 8.25333Z" fill="black"/>
<path fill-rule="evenodd" clip-rule="evenodd" d="M4 13.3333C4 11.7575 4.31039 10.197 4.91345 8.74113C5.5165 7.28522 6.40042 5.96235 7.51472 4.84805C8.62902 3.73375 9.95189 2.84984 11.4078 2.24678C12.8637 1.64372 14.4241 1.33333 16 1.33333C17.5759 1.33333 19.1363 1.64372 20.5922 2.24678C22.0481 2.84984 23.371 3.73375 24.4853 4.84805C25.5996 5.96235 26.4835 7.28522 27.0866 8.74113C27.6896 10.197 28 11.7575 28 13.3333C28 16.5159 26.7357 19.5682 24.4853 21.8186C22.2348 24.0691 19.1826 25.3333 16 25.3333C12.8174 25.3333 9.76516 24.0691 7.51472 21.8186C5.26428 19.5682 4 16.5159 4 13.3333ZM16 4C14.7743 4 13.5607 4.24141 12.4283 4.71046C11.2959 5.1795 10.267 5.86699 9.40034 6.73367C8.53366 7.60035 7.84617 8.62925 7.37712 9.76162C6.90808 10.894 6.66667 12.1077 6.66667 13.3333C6.66667 14.559 6.90808 15.7727 7.37712 16.905C7.84617 18.0374 8.53366 19.0663 9.40034 19.933C10.267 20.7997 11.2959 21.4872 12.4283 21.9562C13.5607 22.4253 14.7743 22.6667 16 22.6667C18.4754 22.6667 20.8493 21.6833 22.5997 19.933C24.35 18.1827 25.3333 15.8087 25.3333 13.3333C25.3333 10.858 24.35 8.48401 22.5997 6.73367C20.8493 4.98333 18.4754 4 16 4Z" fill="black"/>
<path d="M5.33333 28V30.6667H26.6667V28H5.33333Z" fill="black"/>
</svg>
