<svg width="32" height="32" viewBox="0 0 32 32" fill="none" xmlns="http://www.w3.org/2000/svg">
<path d="M6.66667 5.33333V1.33333H9.33333V5.33333H13.3333V8H9.33333V12H6.66667V8H2.66667V5.33333H6.66667Z" fill="black"/>
<path fill-rule="evenodd" clip-rule="evenodd" d="M29.3333 6.30667L14.6667 9.84V21.5733C13.8657 21.2901 12.9953 21.2693 12.1817 21.5139C11.3681 21.7586 10.6535 22.2559 10.1415 22.9338C9.62942 23.6118 9.34654 24.4351 9.3338 25.2846C9.32106 26.1341 9.57913 26.9656 10.0706 27.6586C10.5621 28.3516 11.2615 28.8701 12.0674 29.139C12.8733 29.4078 13.7439 29.4131 14.553 29.1541C15.3621 28.895 16.0678 28.3851 16.5677 27.6981C17.0675 27.0112 17.3357 26.1829 17.3333 25.3333V11.9333L26.6667 9.69333V20.2267C25.8618 19.9425 24.9872 19.9231 24.1706 20.1715C23.354 20.4199 22.6383 20.923 22.1281 21.6072C21.6179 22.2915 21.3399 23.121 21.3348 23.9745C21.3297 24.828 21.5977 25.6608 22.0998 26.3511C22.6018 27.0414 23.3115 27.553 24.125 27.8111C24.9386 28.0692 25.8134 28.0603 26.6215 27.7857C27.4297 27.5112 28.1288 26.9853 28.6167 26.2849C29.1047 25.5846 29.3558 24.7466 29.3333 23.8933V6.30667ZM14.6667 25.3333C14.6667 24.9797 14.5262 24.6406 14.2761 24.3905C14.0261 24.1405 13.687 24 13.3333 24C12.9797 24 12.6406 24.1405 12.3905 24.3905C12.1405 24.6406 12 24.9797 12 25.3333C12 25.687 12.1405 26.0261 12.3905 26.2761C12.6406 26.5262 12.9797 26.6667 13.3333 26.6667C13.687 26.6667 14.0261 26.5262 14.2761 26.2761C14.5262 26.0261 14.6667 25.687 14.6667 25.3333ZM25.3333 22.6667C24.9797 22.6667 24.6406 22.8071 24.3905 23.0572C24.1405 23.3072 24 23.6464 24 24C24 24.3536 24.1405 24.6928 24.3905 24.9428C24.6406 25.1929 24.9797 25.3333 25.3333 25.3333C25.687 25.3333 26.0261 25.1929 26.2761 24.9428C26.5262 24.6928 26.6667 24.3536 26.6667 24C26.6667 23.6464 26.5262 23.3072 26.2761 23.0572C26.0261 22.8071 25.687 22.6667 25.3333 22.6667Z" fill="black"/>
</svg>
