<svg width="32" height="32" viewBox="0 0 32 32" fill="none" xmlns="http://www.w3.org/2000/svg">
<path d="M4 16C4 12.8174 5.26428 9.76515 7.51472 7.51472C9.76515 5.26428 12.8174 4 16 4V1.33333C13.0992 1.33333 10.2636 2.19352 7.85163 3.80511C5.43971 5.41671 3.55985 7.70733 2.44976 10.3873C1.33968 13.0673 1.04923 16.0163 1.61515 18.8613C2.18106 21.7064 3.57793 24.3197 5.6291 26.3709C7.68027 28.4221 10.2936 29.8189 13.1387 30.3849C15.9837 30.9508 18.9327 30.6603 21.6127 29.5502C24.2927 28.4401 26.5833 26.5603 28.1949 24.1484C29.8065 21.7364 30.6667 18.9008 30.6667 16H28C28 17.5759 27.6896 19.1363 27.0866 20.5922C26.4835 22.0481 25.5996 23.371 24.4853 24.4853C23.371 25.5996 22.0481 26.4835 20.5922 27.0866C19.1363 27.6896 17.5759 28 16 28C14.4241 28 12.8637 27.6896 11.4078 27.0866C9.95189 26.4835 8.62902 25.5996 7.51472 24.4853C6.40041 23.371 5.5165 22.0481 4.91344 20.5922C4.31039 19.1363 4 17.5759 4 16Z" fill="black"/>
<path fill-rule="evenodd" clip-rule="evenodd" d="M16 12C16.4541 11.9993 16.905 12.076 17.3333 12.2267V6C17.3333 5.64638 17.4738 5.30724 17.7239 5.05719C17.9739 4.80714 18.313 4.66667 18.6667 4.66667H25.3333V7.33333H20V16.6667H19.9467C19.8196 17.4185 19.4802 18.1184 18.9686 18.6838C18.457 19.2492 17.7945 19.6566 17.059 19.858C16.3236 20.0594 15.5459 20.0463 14.8176 19.8204C14.0893 19.5946 13.4408 19.1652 12.9484 18.583C12.456 18.0008 12.1403 17.2899 12.0385 16.5343C11.9366 15.7786 12.0529 15.0095 12.3736 14.3177C12.6943 13.6259 13.206 13.0402 13.8485 12.6296C14.491 12.2189 15.2375 12.0005 16 12ZM14.6667 16C14.6667 15.6464 14.8071 15.3072 15.0572 15.0572C15.3072 14.8071 15.6464 14.6667 16 14.6667C16.3536 14.6667 16.6928 14.8071 16.9428 15.0572C17.1929 15.3072 17.3333 15.6464 17.3333 16C17.3333 16.3536 17.1929 16.6928 16.9428 16.9428C16.6928 17.1929 16.3536 17.3333 16 17.3333C15.6464 17.3333 15.3072 17.1929 15.0572 16.9428C14.8071 16.6928 14.6667 16.3536 14.6667 16Z" fill="black"/>
<path d="M16 22.6667C14.2319 22.6667 12.5362 21.9643 11.286 20.714C10.0357 19.4638 9.33333 17.7681 9.33333 16H6.66667C6.66667 17.2257 6.90808 18.4393 7.37713 19.5717C7.84617 20.7041 8.53366 21.733 9.40034 22.5997C10.267 23.4663 11.2959 24.1538 12.4283 24.6229C13.5607 25.0919 14.7743 25.3333 16 25.3333C17.2257 25.3333 18.4393 25.0919 19.5717 24.6229C20.7041 24.1538 21.733 23.4663 22.5997 22.5997C23.4663 21.733 24.1538 20.7041 24.6229 19.5717C25.0919 18.4393 25.3333 17.2257 25.3333 16H22.6667C22.6667 17.7681 21.9643 19.4638 20.714 20.714C19.4638 21.9643 17.7681 22.6667 16 22.6667Z" fill="black"/>
</svg>
