<svg width="107" height="40" fill="none" xmlns="http://www.w3.org/2000/svg"><path fill-rule="evenodd" clip-rule="evenodd" d="M105.13 19.65c-.95 0-1.73-.77-1.74-1.73v-.02a1.75 1.75 0 0 1 3.49-.01v.01c0 .96-.8 1.73-1.75 1.75Zm0-3.33c-.86 0-1.56.68-1.56 1.55v.03c0 .87.66 1.57 1.56 1.57.87 0 1.57-.68 1.57-1.55v-.03a1.53 1.53 0 0 0-1.53-1.57h-.04Zm.39 1.75.5.7h-.43l-.44-.63h-.39v.63h-.34v-1.82h.8c.43 0 .7.22.7.59.02.27-.14.46-.4.53Zm-.3-.83h-.45v.57h.45c.22 0 .37-.1.37-.3 0-.16-.13-.27-.37-.27Zm-21.77-5.98c-.97 0-1.77.8-1.78 1.77 0 .97.79 1.77 1.76 1.78a1.77 1.77 0 1 0 .02-3.55Zm1.23 4.91h-2.46c-.1 0-.19.08-.19.19v10.8c0 .1.08.18.19.18h2.48c.1 0 .18-.08.18-.19v-10.8a.21.21 0 0 0-.2-.18Zm5.5 0v-.33c0-1 .39-1.45 1.25-1.45.52 0 .92.11 1.4.26.1.04.2-.02.22-.11l.02-.06V12.4a.18.18 0 0 0-.13-.16 6.5 6.5 0 0 0-2.06-.3c-2.28 0-3.5 1.3-3.5 3.72v.51H86.2c-.1 0-.18.08-.18.19v2.13c0 .1.07.19.18.19h1.2v8.47c0 .1.07.19.18.19h2.48c.1 0 .19-.08.19-.19v-8.47h2.3l3.53 8.47c-.4.89-.8 1.07-1.35 1.07-.44 0-.9-.13-1.36-.39a.2.2 0 0 0-.14-.01.19.19 0 0 0-.11.09l-.85 1.84c-.04.09 0 .18.07.24.89.47 1.68.68 2.65.68 1.82 0 2.83-.85 3.73-3.15L103 16.43c.04-.09 0-.2-.1-.24-.01 0-.03-.02-.07-.02h-2.57a.18.18 0 0 0-.17.13l-2.64 7.54-2.9-7.54c-.01-.07-.08-.1-.16-.1h-4.2m-9.5-.03h-2.72v-2.8a.18.18 0 0 0-.18-.17H75.3a.18.18 0 0 0-.18.18v2.78h-1.2a.18.18 0 0 0-.18.18v2.13c0 .1.07.19.18.19h1.2v5.5c0 2.22 1.1 3.34 3.3 3.34a4.6 4.6 0 0 0 2.3-.57.2.2 0 0 0 .1-.16v-2.03a.18.18 0 0 0-.18-.18c-.04 0-.06 0-.1.02-.47.24-.93.35-1.45.35-.79 0-1.14-.37-1.14-1.16v-5.11h2.72c.1 0 .19-.08.19-.19v-2.13c.02-.1-.06-.17-.17-.17Zm-13.04-.23a5.84 5.84 0 0 0-5.94 5.84c0 3.24 2.6 5.78 5.9 5.78a5.81 5.81 0 1 0 .04-11.62Zm0 9.12c-1.76 0-3.1-1.42-3.1-3.31 0-1.9 1.28-3.28 3.07-3.28 1.78 0 3.12 1.42 3.12 3.31 0 1.92-1.3 3.28-3.09 3.28Zm-11.93-9.12c-1.4 0-2.54.55-3.48 1.67v-1.27c0-.1-.07-.18-.18-.18h-2.49a.18.18 0 0 0-.18.18v14.07c0 .1.07.18.18.18h2.49c.09 0 .18-.07.18-.18v-4.43a4.46 4.46 0 0 0 3.48 1.58c2.59 0 5.2-1.99 5.2-5.81 0-3.83-2.61-5.81-5.2-5.81Zm2.33 5.8c0 1.94-1.2 3.3-2.9 3.3s-2.96-1.42-2.96-3.3c0-1.87 1.26-3.28 2.96-3.28 1.67 0 2.9 1.37 2.9 3.29Zm-14.34-3.06c-2.76-.67-3.26-1.13-3.26-2.1 0-.92.87-1.55 2.15-1.55 1.25 0 2.49.46 3.77 1.44.08.05.2.04.26-.04l1.34-1.9a.17.17 0 0 0-.03-.23 8.2 8.2 0 0 0-5.32-1.84c-2.98 0-5.07 1.78-5.07 4.36 0 2.74 1.8 3.71 4.9 4.47 2.65.6 3.1 1.12 3.1 2.04 0 1.01-.9 1.64-2.36 1.64-1.62 0-2.92-.56-4.4-1.83-.03-.03-.09-.05-.12-.03-.06 0-.1.02-.13.07l-1.5 1.8a.2.2 0 0 0 .01.26 9.1 9.1 0 0 0 6.09 2.34c3.22 0 5.3-1.77 5.3-4.47 0-2.36-1.37-3.62-4.73-4.43ZM16.12 4a16 16 0 1 0 0 32 16 16 0 0 0 0-32Zm7.34 23.08c-.3.48-.9.63-1.36.33-3.75-2.3-8.48-2.81-14.05-1.54a1 1 0 0 1-1.2-.76 1 1 0 0 1 .76-1.2c6.08-1.39 11.32-.78 15.54 1.8.44.29.58.9.3 1.37Zm1.95-4.36c-.37.59-1.12.77-1.71.4-4.3-2.64-10.85-3.4-15.95-1.85a1.24 1.24 0 0 1-.74-2.37c5.82-1.77 13.05-.9 18 2.13.58.33.77 1.1.4 1.7Zm.18-4.54C20.42 15.1 11.93 14.83 7 16.32a1.5 1.5 0 0 1-.9-2.85c.03 0 .03 0 .04-.02 5.65-1.7 15.05-1.38 20.99 2.14.72.42.94 1.34.51 2.06-.42.71-1.34.95-2.04.53Z" fill="#7E8999"/></svg>