<svg width="151" height="40" fill="none" xmlns="http://www.w3.org/2000/svg"><g clip-path="url(#a)" fill="#7E8999"><path d="M54.7 29.45h-3.85V15.79h-4.98v-3.3h13.81v3.3H54.7v13.66Zm20.37 0H71.2V12.49h3.87v16.96Zm68.35-3.35h6.7v3.35h-10.57V12.49h3.87V26.1ZM87.97 12.49h6.27c4.63 0 9.24 2.45 9.24 8.43 0 5.64-4.52 8.53-9 8.53h-6.51V12.49Zm3.76 13.63h2.4c3.23 0 5.38-2.01 5.38-5.22 0-3.05-2.17-5.11-5.29-5.11h-2.5v10.33Zm33.24 3.33h4.26l-6.99-16.96h-4l-7.05 16.96h4.14l1.25-3.35h7.15l1.24 3.35Zm-7.35-6.36 2.56-6.63 2.53 6.63h-5.09Zm-97.65-8.13-4.96 4.97-4.96-4.97L15 10l4.96 4.96Zm0 9.93-4.96 4.96-4.96-4.96L15 19.93l4.96 4.96Z"/><path d="m10.05 14.96-4.97 4.97-4.96-4.97L5.08 10l4.97 4.96Zm19.85 0-4.96 4.97-4.97-4.97L24.94 10l4.96 4.96Z"/></g><defs><clipPath id="a"><path fill="#fff" transform="translate(.12)" d="M0 0h150v40H0z"/></clipPath></defs></svg>