<svg width="151" height="40" fill="none" xmlns="http://www.w3.org/2000/svg"><g clip-path="url(#a)" fill="#7E8999"><path d="M108.76 17.63c-.57 2.9-1 6.47-1.23 7.94h-.17a104.5 104.5 0 0 0-1.22-7.93l-1.46-7.13h-4.48v19.27h2.78V13.9l.26 1.48 2.84 14.4h2.78l2.78-14.4.3-1.49v15.9h2.77V10.5h-4.52l-1.43 7.12Zm13.46 9.25a1.57 1.57 0 0 1-1.36.9c-.64 0-.9-.51-.9-1.75V15.7h-3.16v10.51c0 2.6.84 3.79 2.73 3.79 1.28 0 2.32-.58 3.03-1.95h.07l.26 1.72h2.5V15.7h-3.17v11.17Zm9.29-5.62c-1.03-.76-1.67-1.26-1.67-2.38 0-.78.37-1.21 1.24-1.21s1.2.62 1.22 2.73l2.66-.12c.2-3.42-.92-4.84-3.83-4.84-2.71 0-4.04 1.22-4.04 3.72 0 2.27 1.1 3.3 2.89 4.66 1.53 1.2 2.43 1.85 2.43 2.82a1.15 1.15 0 0 1-.77 1.18c-.16.06-.32.08-.5.06-.93 0-1.48-.9-1.34-2.46l-2.7.05c-.4 2.9.77 4.62 3.89 4.62 2.73 0 4.15-1.27 4.15-3.8 0-2.27-1.14-3.2-3.63-5.03Zm8.41-5.56h-3.03v14.08h3.03V15.7Zm-1.49-5.55c-1.17 0-1.72.44-1.72 1.95 0 1.56.55 1.95 1.72 1.95s1.72-.39 1.72-1.95c0-1.45-.53-1.95-1.72-1.95Zm11.68 14.55-2.78-.13c0 2.48-.27 3.28-1.22 3.28s-1.1-.9-1.1-3.81V21.3c0-2.83.18-3.72 1.12-3.72.88 0 1.1.85 1.1 3.46l2.76-.18c.18-2.18-.1-3.67-.94-4.52-.62-.62-1.56-.92-2.87-.92-3.08 0-4.34 1.65-4.34 6.29v1.99c0 4.77 1.08 6.31 4.23 6.31 1.32 0 2.25-.26 2.87-.87.9-.84 1.24-2.27 1.17-4.45ZM41.95 29.36a3.5 3.5 0 0 1-1.36-2 13.1 13.1 0 0 1-.4-3.6v-2.04c-.03-1.23.12-2.47.46-3.65.23-.82.74-1.53 1.44-2.01a4.65 4.65 0 0 1 2.56-.63c1.04 0 1.87.21 2.5.64a3.7 3.7 0 0 1 1.38 2.01c.32 1.18.47 2.41.43 3.64v2.04c.04 1.22-.1 2.44-.42 3.62a3.6 3.6 0 0 1-1.38 2 4.6 4.6 0 0 1-2.58.63c-1.12 0-2-.22-2.63-.65Zm3.56-2.2c.17-.46.26-1.2.26-2.25v-4.37c.04-.75-.05-1.5-.26-2.22a.95.95 0 0 0-.93-.7.93.93 0 0 0-.9.7c-.18.47-.27 1.2-.27 2.22v4.38c0 1.04.08 1.8.26 2.25a.93.93 0 0 0 .92.7.94.94 0 0 0 .92-.7Zm45.21-3.36v.7c0 .68.02 1.36.08 2.03.02.36.14.7.34.99a.95.95 0 0 0 .79.3.98.98 0 0 0 .96-.53c.17-.37.27-.99.28-1.85l2.74.16.02.5c0 1.3-.35 2.28-1.06 2.91-.7.64-1.71.96-3.02.99-1.56 0-2.66-.5-3.28-1.47-.63-.98-.95-2.5-.94-4.56v-2.45c0-2.11.32-3.65.97-4.62.65-.97 1.76-1.46 3.34-1.46 1.09 0 1.92.2 2.5.6a3.2 3.2 0 0 1 1.23 1.84c.27 1.15.4 2.32.36 3.5v2.4l-5.3.02Zm.4-5.93c-.19.3-.3.63-.32.98-.06.68-.08 1.37-.08 2.05v1.01h2.32v-1c.01-.7-.02-1.38-.09-2.06-.02-.36-.13-.7-.33-.99a.92.92 0 0 0-.75-.29.9.9 0 0 0-.74.3Zm-56.89 5.66-3.6-13.02h3.14l1.27 5.9c.32 1.46.56 2.7.7 3.72h.1c.1-.73.35-1.97.71-3.7l1.33-5.92h3.14l-3.66 13.02v6.25h-3.13v-6.25ZM59.2 15.7v14.08h-2.48l-.28-1.72h-.07c-.67 1.3-1.68 1.95-3.03 1.95-.93 0-1.62-.3-2.06-.92-.45-.6-.67-1.57-.68-2.87V15.7h3.17v10.33c-.03.46.04.92.21 1.35a.72.72 0 0 0 .69.4c.28 0 .56-.1.8-.26s.43-.38.56-.64V15.7h3.17Zm16.24 0v14.08h-2.48l-.26-1.72h-.07c-.68 1.3-1.69 1.95-3.03 1.95-.94 0-1.62-.3-2.07-.92-.44-.6-.66-1.57-.66-2.87V15.7h3.17v10.33c-.03.46.04.92.2 1.35a.72.72 0 0 0 .7.4c.28 0 .55-.1.79-.26.23-.16.42-.38.54-.64V15.7h3.17Z"/><path d="M67.8 13.06h-3.14v16.72h-3.1V13.06h-3.14v-2.55h9.39v2.55Zm18.14 4.89a3.62 3.62 0 0 0-.93-1.93 2.5 2.5 0 0 0-1.77-.6c-.58 0-1.15.18-1.63.5-.5.32-.9.77-1.17 1.3h-.02V9.8h-3.06v20h2.62l.32-1.33h.07c.25.48.63.87 1.1 1.13.5.27 1.07.4 1.64.4a2.5 2.5 0 0 0 2.36-1.49c.5-.98.76-2.52.76-4.62v-2.23c.03-1.24-.07-2.48-.3-3.7Zm-2.9 5.76c0 .8-.04 1.61-.13 2.41a2.6 2.6 0 0 1-.43 1.24.98.98 0 0 1-.8.37c-.24 0-.5-.06-.71-.19a1.39 1.39 0 0 1-.54-.55v-8a2 2 0 0 1 .55-.94c.22-.23.53-.37.85-.37a.86.86 0 0 1 .75.38c.22.39.34.82.36 1.27.08.85.12 1.7.1 2.55v1.83ZM14.07 6a13.95 13.95 0 1 0 0 27.9 13.95 13.95 0 0 0 0-27.9Zm0 22.42a8.47 8.47 0 1 1 0-16.94 8.47 8.47 0 0 1 0 16.94Z"/><path d="M14.08 12.6a7.35 7.35 0 1 0 0 14.7 7.35 7.35 0 0 0 0-14.7Zm-2.7 11.47v-8.24l7.14 4.12-7.14 4.12Z"/></g><defs><clipPath id="a"><path fill="#fff" transform="translate(.12)" d="M0 0h150v40H0z"/></clipPath></defs></svg>